<svg xmlns="http://www.w3.org/2000/svg" viewBox="0 0 100 100"><g fill="#ff0"><path d="M30.94 82.82c-.963 0-1.896-.26-2.69-.772-1.214-.781-2.017-2.124-2.208-3.683-.2-1.646.315-3.3 1.375-4.426l.07-.071c2.144-2.214 4.745-5.908 4.819-10.79l.187-11.473c.264-1.535.829-2.902 1.68-4.063.616-.845 1.185-1.312 1.6-1.653.155-.128.35-.287.39-.352-.101-.149-.873-.582-1.382-.869-1.266-.71-2.998-1.683-4.296-3.59-1.166-1.716-1.73-3.808-1.673-6.217.07-2.922 1.266-5.143 2.124-6.369L29.459 17.18l7.33 6.865a13.885 13.885 0 0 1 5.084-1.58c2.983-.318 5.46.396 7.153 1.155l7.829-5.935-1.653 10.464c.964 1.264 2.286 3.55 2.278 6.573-.012 4.598-3.08 7.58-4.56 8.752a101.662 101.662 0 0 1 5.51 13.454 101.782 101.782 0 0 1 2.788 10.31 3.596 3.596 0 0 0 1.57 2.27 3.04 3.04 0 0 0 2.322.42 2.59 2.59 0 0 0 .95-.418c1.111-.805 2.036-3.107.129-9.501-1.078-3.613-3.284-7.006-6.381-9.811l-.193-.176-.083-.247c-.145-.43-.797-2.652.538-4.134.609-.676 1.812-1.393 4.088-.977 4.76.873 7.322 8.465 8.633 14.68 1.27 6.031 2.186 10.38-.702 13.926-2.352 2.887-5.991 3.686-8.63 3.846-.853.052-1.594.653-1.846 1.496l-.015.05a4.129 4.129 0 0 1-3.932 2.925h-20.34c-1.609 0-2.943.241-4.076.738a5.765 5.765 0 0 1-2.31.495zm3.538-30.95-.172 11.237c-.066 4.384-1.937 8.595-5.407 12.177-.685.725-1 1.777-.871 2.84.118.967.593 1.784 1.305 2.243.85.549 2.044.595 3.115.126 1.391-.61 2.987-.906 4.878-.906h20.34c.938 0 1.748-.604 2.017-1.503l.972.242-.958-.286c.49-1.644 1.953-2.817 3.64-2.92 2.24-.137 5.307-.787 7.201-3.113 2.286-2.805 1.495-6.558.298-12.24-1.652-7.834-4.217-12.619-7.037-13.136-1.066-.194-1.865-.07-2.243.349-.426.473-.338 1.367-.195 1.927 3.256 3.014 5.586 6.65 6.744 10.53.67 2.25 2.713 9.095-.871 11.693a4.596 4.596 0 0 1-1.675.747c-1.314.303-2.678.06-3.845-.682a5.61 5.61 0 0 1-2.451-3.538 99.768 99.768 0 0 0-2.733-10.106 99.888 99.888 0 0 0-5.776-13.935l-.408-.804.758-.488c.179-.116 4.363-2.868 4.376-7.607.007-2.706-1.315-4.702-2.104-5.65l-.289-.349 1.018-6.438-4.852 3.678-.556-.28c-1.443-.726-3.757-1.529-6.613-1.224a11.88 11.88 0 0 0-4.917 1.68l-.65.397-4.353-4.077.86 6.582-.248.326c-.707.933-1.902 2.893-1.964 5.546-.018.74-.07 2.99 1.327 5.045 1.032 1.518 2.468 2.324 3.62 2.971 1.219.684 2.479 1.392 2.384 2.791-.058.862-.611 1.317-1.1 1.719-.37.303-.789.648-1.257 1.288-.653.892-1.092 1.95-1.308 3.148z"/><path d="M49.207 38.813a4.856 4.856 0 0 1-1.99-.436 5.05 5.05 0 0 1-2.731-3.064l-.313-.976L53.2 31.7l.28.957c.686 2.327-.42 4.871-2.514 5.793-.55.242-1.15.362-1.758.362zm-2.333-3.182c.304.395.702.715 1.164.923.712.322 1.487.346 2.122.065.905-.398 1.477-1.352 1.523-2.393l-4.809 1.405zm-9.54 3.182c-.61 0-1.208-.121-1.758-.363-2.095-.922-3.2-3.467-2.515-5.793l.281-.957 9.026 2.637-.312.977a5.054 5.054 0 0 1-2.731 3.064 4.86 4.86 0 0 1-1.99.434zm-2.476-4.587c.046 1.04.618 1.995 1.522 2.393.636.28 1.41.256 2.123-.065a3.04 3.04 0 0 0 1.163-.923l-4.808-1.405z"/></g></svg>